<svg xmlns="http://www.w3.org/2000/svg" width="1200" height="700" viewBox="0 0 1200 700"><style>text{font-family:-apple-system,BlinkMacSystemFont,'Segoe UI','PingFang SC','Microsoft YaHei',sans-serif;fill:#172033}.t{font-size:28px;font-weight:700}.h{font-size:22px;font-weight:700}.s{font-size:17px}.w{stroke:#172033;stroke-width:3;fill:none}.b{stroke:#8da0b8;stroke-width:2;fill:#fff}.n{fill:#172033}</style><rect width="1200" height="700" fill="#fff"/><text x="600" y="42" text-anchor="middle" class="t">常见滤波网络</text><rect x="35" y="75" width="540" height="255" rx="14" class="b"/><text x="305" y="108" text-anchor="middle" class="h">RC 低通</text><text x="75" y="195" class="s">Vin</text><line x1="120" y1="190" x2="195" y2="190" class="w"/><rect x="195" y="172" width="120" height="36" class="b"/><text x="255" y="197" text-anchor="middle" class="s">R</text><circle cx="355" cy="190" r="5" class="n"/><line x1="315" y1="190" x2="490" y2="190" class="w"/><text x="500" y="197" class="s">Vout</text><line x1="355" y1="190" x2="355" y2="235" class="w"/><line x1="330" y1="235" x2="380" y2="235" class="w"/><line x1="330" y1="255" x2="380" y2="255" class="w"/><line x1="355" y1="255" x2="355" y2="285" class="w"/><text x="395" y="252" class="s">C</text><text x="305" y="308" text-anchor="middle" class="s">fc = 1/(2πRC)</text><rect x="625" y="75" width="540" height="255" rx="14" class="b"/><text x="895" y="108" text-anchor="middle" class="h">RC 高通 / 交流耦合</text><text x="670" y="195" class="s">Vin</text><line x1="715" y1="190" x2="760" y2="190" class="w"/><line x1="760" y1="165" x2="760" y2="215" class="w"/><line x1="782" y1="165" x2="782" y2="215" class="w"/><line x1="782" y1="190" x2="865" y2="190" class="w"/><circle cx="865" cy="190" r="5" class="n"/><line x1="865" y1="190" x2="1060" y2="190" class="w"/><text x="1070" y="197" class="s">Vout</text><rect x="838" y="225" width="55" height="75" class="b"/><text x="910" y="268" class="s">Rbias</text><line x1="865" y1="190" x2="865" y2="225" class="w"/><text x="895" y="320" text-anchor="middle" class="s">阻断直流，保留变化分量</text><rect x="35" y="365" width="540" height="255" rx="14" class="b"/><text x="305" y="398" text-anchor="middle" class="h">LC / π 型电源滤波</text><text x="75" y="490" class="s">VIN</text><line x1="125" y1="485" x2="190" y2="485" class="w"/><path d="M190 485 q18 -38 36 0 q18 -38 36 0 q18 -38 36 0 q18 -38 36 0" class="w"/><text x="260" y="445" class="s">L / 磁珠</text><line x1="334" y1="485" x2="515" y2="485" class="w"/><text x="525" y="492" class="s">VOUT</text><line x1="165" y1="485" x2="165" y2="540" class="w"/><line x1="140" y1="540" x2="190" y2="540" class="w"/><line x1="140" y1="560" x2="190" y2="560" class="w"/><line x1="435" y1="485" x2="435" y2="540" class="w"/><line x1="410" y1="540" x2="460" y2="540" class="w"/><line x1="410" y1="560" x2="460" y2="560" class="w"/><text x="305" y="598" text-anchor="middle" class="s">注意谐振、阻尼、电感饱和与回路布局</text><rect x="625" y="365" width="540" height="255" rx="14" class="b"/><text x="895" y="398" text-anchor="middle" class="h">差模与共模滤波</text><line x1="690" y1="475" x2="810" y2="475" class="w"/><line x1="690" y1="535" x2="810" y2="535" class="w"/><rect x="810" y="445" width="120" height="120" rx="12" class="b"/><text x="870" y="498" text-anchor="middle" class="s">共模</text><text x="870" y="525" text-anchor="middle" class="s">扼流圈</text><line x1="930" y1="475" x2="1090" y2="475" class="w"/><line x1="930" y1="535" x2="1090" y2="535" class="w"/><text x="895" y="595" text-anchor="middle" class="s">先判断噪声模式，再选择器件</text></svg>